<svg width="531" height="331" viewBox="0 0 531 331" fill="none" xmlns="http://www.w3.org/2000/svg">
<g clip-path="url(#clip0_10_6)">
<g clip-path="url(#clip1_10_6)">
<g clip-path="url(#clip2_10_6)">
<g clip-path="url(#clip3_10_6)">
<g clip-path="url(#clip4_10_6)">
<g clip-path="url(#clip5_10_6)">
<g clip-path="url(#clip6_10_6)">
<g clip-path="url(#clip7_10_6)">
<g clip-path="url(#clip8_10_6)">
<g clip-path="url(#clip9_10_6)">
<g clip-path="url(#clip10_10_6)">
<path d="M129.751 107.393C133.07 108.036 135.564 109.161 137.234 110.767C138.882 112.374 139.707 114.248 139.707 116.391C139.707 119.925 138.722 122.496 136.752 124.102C134.761 125.709 131.624 126.352 127.342 126.03C117.708 125.281 110.183 124.767 104.766 124.488C99.3707 124.231 92.2841 124.049 83.5061 123.942C79.5453 143.65 75.9057 163.465 72.5872 183.387C71.4096 190.671 70.1786 199.1 68.894 208.676C67.6094 218.273 66.753 226.017 66.3248 231.908C66.1107 235.014 64.8261 237.392 62.4711 239.041C60.116 240.712 57.2792 241.547 53.9607 241.547C50.4281 241.547 47.6984 240.691 45.7715 238.977C43.8446 237.263 42.8812 235.014 42.8812 232.229C42.8812 229.658 43.288 225.395 44.1016 219.44C44.8937 213.506 45.825 207.273 46.8955 200.739C48.0731 194.205 48.983 188.529 49.6253 183.709C50.8028 175.568 52.1409 167.482 53.6396 159.448C55.1383 151.415 56.6369 143.811 58.1356 136.634C58.4568 135.028 58.8314 133.175 59.2596 131.075C59.6878 128.997 60.1695 126.673 60.7048 124.102C50.214 124.424 41.9713 125.281 35.9766 126.673C29.9819 128.066 25.732 130.015 23.2271 132.521C20.7008 135.049 19.4376 138.294 19.4376 142.257C19.4376 145.899 20.5081 149.38 22.649 152.701C23.0772 153.45 23.2913 154.254 23.2913 155.111C23.2913 157.146 22.0924 159.041 19.6945 160.798C17.2752 162.576 14.781 163.465 12.2118 163.465C10.392 163.465 8.89332 162.93 7.71578 161.858C5.57481 160.038 3.80851 157.435 2.41688 154.05C1.02525 150.687 0.329437 146.863 0.329437 142.579C0.329437 133.475 3.30539 126.159 9.25728 120.632C15.1878 115.127 24.2334 111.089 36.3941 108.518C48.5334 105.948 64.1303 104.662 83.185 104.662C94.9603 104.662 104.359 104.876 111.382 105.305C118.382 105.733 124.506 106.43 129.751 107.393ZM118.832 241.547C112.195 241.547 106.896 239.138 102.935 234.318C98.9746 229.498 96.9942 223.178 96.9942 215.359C96.9942 206.791 98.9746 198.672 102.935 191.003C106.896 183.355 112.163 177.196 118.736 172.526C125.33 167.878 132.32 165.554 139.707 165.554C142.062 165.554 143.635 166.004 144.427 166.903C145.241 167.824 145.915 169.463 146.451 171.82C148.699 171.391 151.054 171.177 153.516 171.177C158.761 171.177 161.384 173.051 161.384 176.8C161.384 179.049 160.581 184.405 158.975 192.866C156.513 205.184 155.282 213.753 155.282 218.573C155.282 220.179 155.678 221.465 156.47 222.429C157.284 223.393 158.333 223.875 159.618 223.875C161.651 223.875 164.114 222.557 167.004 219.922C169.894 217.309 173.801 213.057 178.726 207.166C180.01 205.666 181.455 204.916 183.061 204.916C184.453 204.916 185.545 205.559 186.337 206.844C187.15 208.129 187.557 209.897 187.557 212.146C187.557 216.43 186.54 219.751 184.506 222.107C180.117 227.57 175.461 232.175 170.537 235.924C165.612 239.673 160.849 241.547 156.246 241.547C152.713 241.547 149.469 240.337 146.515 237.917C143.582 235.517 141.366 232.229 139.867 228.052C134.301 237.049 127.289 241.547 118.832 241.547ZM124.613 225.32C126.968 225.32 129.216 223.928 131.357 221.143C133.498 218.358 135.05 214.663 136.013 210.057L141.955 180.495C137.459 180.602 133.305 182.284 129.494 185.54C125.705 188.818 122.686 193.134 120.438 198.49C118.19 203.845 117.066 209.522 117.066 215.52C117.066 218.84 117.73 221.304 119.057 222.911C120.406 224.517 122.258 225.32 124.613 225.32ZM235.376 204.916C236.767 204.916 237.87 205.559 238.684 206.844C239.476 208.129 239.872 209.897 239.872 212.146C239.872 216.43 238.855 219.751 236.821 222.107C232.239 227.784 227.24 232.443 221.823 236.085C216.407 239.727 210.284 241.547 203.454 241.547C194.012 241.547 187.022 237.263 182.483 228.694C177.923 220.126 175.643 209.04 175.643 195.437C175.643 182.37 177.334 167.482 180.717 150.773C184.078 134.064 189.056 119.711 195.65 107.715C202.223 95.7186 210.059 89.7205 219.158 89.7205C224.318 89.7205 228.364 92.0983 231.297 96.854C234.252 101.631 235.729 108.465 235.729 117.355C235.729 130.101 232.196 144.882 225.131 161.698C218.045 178.514 208.464 195.169 196.389 211.664C197.117 216.056 198.348 219.183 200.082 221.047C201.795 222.932 204.043 223.875 206.826 223.875C211.194 223.875 215.037 222.611 218.355 220.083C221.674 217.577 225.902 213.271 231.04 207.166C232.325 205.666 233.77 204.916 235.376 204.916ZM215.657 105.626C213.174 105.626 210.38 110.071 207.276 118.961C204.193 127.851 201.463 138.884 199.086 152.058C196.753 165.232 195.479 177.871 195.265 189.975C202.865 177.443 208.903 164.879 213.377 152.283C217.873 139.708 220.121 128.226 220.121 117.837C220.121 109.696 218.633 105.626 215.657 105.626ZM319.676 204.916C321.068 204.916 322.171 205.559 322.984 206.844C323.776 208.129 324.172 209.897 324.172 212.146C324.172 216.43 323.156 219.751 321.122 222.107C316.304 227.998 311.434 232.711 306.509 236.246C301.585 239.78 295.751 241.547 289.007 241.547C280.764 241.547 274.127 239.191 269.096 234.478C264.065 229.766 261.549 223.5 261.549 215.681C261.549 211.503 263.69 208.504 267.972 206.684C272.682 204.648 276.054 202.474 278.088 200.161C280.122 197.868 281.139 195.062 281.139 191.742C281.139 189.814 280.743 188.368 279.951 187.404C279.137 186.44 278.142 185.958 276.964 185.958C274.074 185.958 270.894 188.047 267.426 192.224C263.936 196.401 260.693 201.778 257.695 208.354C254.698 214.952 252.343 221.732 250.63 228.694C249.453 233.729 248.093 237.124 246.552 238.88C244.989 240.658 242.548 241.547 239.23 241.547C235.911 241.547 233.481 240.337 231.94 237.917C230.377 235.517 229.328 231.801 228.792 226.766C228.257 221.732 227.989 214.342 227.989 204.595C227.989 188.1 229.681 170.909 233.064 153.022C236.425 135.135 241.403 120.107 247.997 107.94C254.57 95.7936 262.459 89.7205 271.665 89.7205C276.589 89.7205 280.582 91.8306 283.644 96.0507C286.684 100.292 288.204 105.787 288.204 112.535C288.204 123.353 285.046 134.567 278.73 146.178C272.415 157.81 262.138 171.391 247.9 186.922C247.579 192.492 247.419 198.222 247.419 204.113C252.557 190.724 258.445 180.999 265.082 174.936C271.719 168.895 277.928 165.875 283.708 165.875C289.061 165.875 293.375 167.696 296.65 171.338C299.905 174.979 301.532 179.478 301.532 184.833C301.532 190.724 300.033 196.133 297.036 201.06C294.038 205.987 288.9 210.379 281.621 214.235C282.049 217.127 283.366 219.451 285.571 221.207C287.755 222.986 290.399 223.875 293.503 223.875C296.822 223.875 300.033 222.589 303.137 220.019C306.242 217.448 310.31 213.164 315.341 207.166C316.626 205.666 318.071 204.916 319.676 204.916ZM268.293 105.626C266.366 105.626 264.225 108.379 261.87 113.884C259.515 119.411 257.246 126.866 255.062 136.249C252.857 145.61 251.058 155.807 249.667 166.839C256.304 159.02 261.795 150.505 266.141 141.293C270.466 132.082 272.629 123.728 272.629 116.23C272.629 112.802 272.254 110.178 271.505 108.357C270.755 106.537 269.685 105.626 268.293 105.626ZM382.782 204.916C384.173 204.916 385.276 205.559 386.089 206.844C386.881 208.129 387.278 209.897 387.278 212.146C387.278 216.43 386.261 219.751 384.227 222.107C380.266 226.927 374.667 231.372 367.431 235.442C360.216 239.512 352.487 241.547 344.244 241.547C333.004 241.547 324.28 238.495 318.071 232.39C311.862 226.284 308.757 217.93 308.757 207.326C308.757 199.936 310.31 193.059 313.414 186.697C316.519 180.313 320.833 175.247 326.356 171.498C331.859 167.749 338.089 165.875 345.047 165.875C351.256 165.875 356.233 167.717 359.98 171.402C363.727 175.108 365.6 180.12 365.6 186.44C365.6 193.83 362.956 200.171 357.668 205.462C352.358 210.775 343.388 214.984 330.756 218.091C333.432 223.018 338.517 225.481 346.01 225.481C350.828 225.481 356.319 223.789 362.485 220.404C368.63 217.041 373.95 212.628 378.446 207.166C379.731 205.666 381.176 204.916 382.782 204.916ZM342.317 181.62C338.356 181.62 335.006 183.923 332.265 188.529C329.546 193.134 328.187 198.704 328.187 205.238V205.559C334.503 204.059 339.48 201.81 343.12 198.811C346.76 195.812 348.58 192.331 348.58 188.368C348.58 186.333 348.023 184.705 346.91 183.484C345.775 182.241 344.244 181.62 342.317 181.62ZM385.672 241.547C381.604 241.547 378.735 239.405 377.065 235.121C375.417 230.837 374.592 223.982 374.592 214.556C374.592 200.632 376.573 187.404 380.533 174.872C381.497 171.766 383.071 169.485 385.254 168.028C387.46 166.593 390.543 165.875 394.503 165.875C396.644 165.875 398.143 166.143 398.999 166.678C399.856 167.214 400.284 168.231 400.284 169.731C400.284 171.445 399.481 175.301 397.875 181.299C396.805 185.583 395.948 189.332 395.306 192.545C394.664 195.758 394.129 199.721 393.7 204.434C397.233 195.223 401.194 187.725 405.583 181.941C409.972 176.157 414.275 172.034 418.493 169.57C422.732 167.107 426.618 165.875 430.15 165.875C437.109 165.875 440.588 169.356 440.588 176.318C440.588 180.495 439.41 188.047 437.055 198.972C435.021 208.29 434.004 214.449 434.004 217.448C434.004 221.732 435.556 223.875 438.661 223.875C440.802 223.875 443.339 222.557 446.272 219.922C449.227 217.309 453.166 213.057 458.09 207.166C459.375 205.666 460.82 204.916 462.426 204.916C463.817 204.916 464.909 205.559 465.701 206.844C466.515 208.129 466.922 209.897 466.922 212.146C466.922 216.43 465.905 219.751 463.871 222.107C459.268 227.784 454.311 232.443 449.002 236.085C443.714 239.727 437.697 241.547 430.953 241.547C425.494 241.547 421.373 239.962 418.589 236.792C415.806 233.643 414.414 229.069 414.414 223.071C414.414 220.072 415.164 214.717 416.662 207.005C418.054 200.257 418.75 195.598 418.75 193.027C418.75 191.313 418.161 190.457 416.984 190.457C415.592 190.457 413.633 192.245 411.107 195.823C408.602 199.422 406.032 204.166 403.399 210.057C400.787 215.948 398.678 222.161 397.072 228.694C395.895 233.729 394.525 237.124 392.962 238.88C391.42 240.658 388.99 241.547 385.672 241.547ZM525.531 204.916C526.922 204.916 528.014 205.559 528.806 206.844C529.62 208.129 530.027 209.897 530.027 212.146C530.027 216.43 529.01 219.751 526.976 222.107C522.373 227.784 517.341 232.443 511.882 236.085C506.422 239.727 500.16 241.547 493.095 241.547C471.257 241.547 460.338 226.177 460.338 195.437C460.338 190.724 460.499 185.958 460.82 181.138H454.558C451.346 181.138 449.173 180.549 448.038 179.371C446.925 178.193 446.368 176.318 446.368 173.748C446.368 167.749 448.777 164.75 453.594 164.75H462.747C464.567 152.968 467.35 142.204 471.096 132.457C474.843 122.71 479.361 114.945 484.649 109.161C489.937 103.377 495.643 100.485 501.766 100.485C506.262 100.485 509.795 102.466 512.364 106.43C514.933 110.393 516.217 115.373 516.217 121.371C516.217 137.973 509.259 152.433 495.343 164.75H513.327C515.04 164.75 516.271 165.125 517.02 165.875C517.77 166.625 518.144 168.017 518.144 170.052C518.144 177.443 512.096 181.138 500 181.138H480.41C480.196 186.493 480.089 190.671 480.089 193.67C480.089 204.809 481.395 212.628 484.007 217.127C486.64 221.625 490.793 223.875 496.467 223.875C501.07 223.875 505.138 222.482 508.67 219.697C512.203 216.912 516.378 212.735 521.195 207.166C522.48 205.666 523.925 204.916 525.531 204.916ZM497.398 115.909C495.793 115.909 494.005 117.912 492.035 121.917C490.065 125.945 488.192 131.514 486.415 138.626C484.638 145.76 483.172 153.665 482.015 162.34C488.331 156.878 493.063 150.74 496.21 143.928C499.379 137.138 500.963 130.957 500.963 125.388C500.963 119.068 499.775 115.909 497.398 115.909Z" fill="#F9A826"/>
</g>
</g>
</g>
</g>
</g>
</g>
</g>
</g>
</g>
</g>
</g>
<defs>
<clipPath id="clip0_10_6">
<rect width="531" height="331" fill="white"/>
</clipPath>
<clipPath id="clip1_10_6">
<rect width="531" height="331" fill="white" transform="translate(-0.321823 0.134003)"/>
</clipPath>
<clipPath id="clip2_10_6">
<rect width="529.729" height="331.268" fill="white" transform="translate(0.313492)"/>
</clipPath>
<clipPath id="clip3_10_6">
<rect width="529.729" height="331.268" fill="white" transform="translate(0.313492)"/>
</clipPath>
<clipPath id="clip4_10_6">
<rect width="529.729" height="151.827" fill="white" transform="translate(0.313492 89.7205)"/>
</clipPath>
<clipPath id="clip5_10_6">
<rect width="529.729" height="151.827" fill="white" transform="translate(0.313492 89.7205)"/>
</clipPath>
<clipPath id="clip6_10_6">
<rect width="529.729" height="151.827" fill="white" transform="translate(0.313492 89.7205)"/>
</clipPath>
<clipPath id="clip7_10_6">
<rect width="529.729" height="151.827" fill="white" transform="translate(0.313492 89.7205)"/>
</clipPath>
<clipPath id="clip8_10_6">
<rect width="529.729" height="151.827" fill="white" transform="translate(0.313492 89.7205)"/>
</clipPath>
<clipPath id="clip9_10_6">
<rect width="529.729" height="151.827" fill="white" transform="translate(0.313492 89.7205)"/>
</clipPath>
<clipPath id="clip10_10_6">
<rect width="529.729" height="151.827" fill="white" transform="translate(0.313492 89.7205)"/>
</clipPath>
</defs>
</svg>
