<svg width="613" height="462" viewBox="0 0 613 462" fill="none" xmlns="http://www.w3.org/2000/svg">
<path d="M195.823 357.289C195.823 357.289 212.435 318.074 216.772 302.749C221.109 287.425 219.837 241.942 219.837 241.942L231.852 210.526C231.852 210.526 316.139 142.057 340.659 127.253C365.179 112.45 394.818 89.4322 403.492 94.5506C412.166 99.669 410.649 110.902 400.427 122.135C396.228 126.732 390.542 131.575 387.064 136.616C384.228 140.739 380.688 153.688 384.09 158.285C388.167 163.787 398.711 155.803 404.381 161.212C407.369 164.063 407.185 169.074 405.193 172.675C403.201 176.276 399.814 178.805 396.703 181.578C388.412 188.75 381.378 197.761 374.788 206.389C368.045 215.262 371.907 227.843 372.443 238.065C373.087 250.493 374.819 265.312 371.309 277.464C365.685 296.865 332.721 320.878 318.423 333.153C304.125 345.428 292.11 386.283 292.11 386.283L195.823 357.289Z" fill="white"/>
<path d="M292.14 387.049H291.911L195.608 358.056C195.504 358.025 195.407 357.972 195.325 357.901C195.243 357.829 195.178 357.741 195.133 357.642C195.091 357.542 195.07 357.435 195.07 357.328C195.07 357.22 195.091 357.113 195.133 357.013C195.302 356.63 211.776 317.675 216.052 302.565C220.328 287.455 219.117 242.447 219.117 242.003C219.101 241.907 219.101 241.808 219.117 241.712L231.132 210.281C231.179 210.156 231.259 210.045 231.362 209.959C232.204 209.27 315.986 141.29 340.276 126.625C346.406 122.901 352.981 118.625 359.31 114.488C379.539 101.263 396.994 89.8613 403.906 93.9223C405.461 94.772 406.802 95.9664 407.824 97.4141C408.847 98.8617 409.525 100.524 409.806 102.274C410.695 108.189 407.584 115.407 401.025 122.625C399.492 124.158 397.96 125.828 396.259 127.514C393.143 130.427 390.287 133.606 387.723 137.015C384.887 141.137 381.593 153.627 384.734 157.795C386.481 160.155 389.73 159.618 393.469 159.005C397.209 158.392 401.821 157.642 404.948 160.63C408.074 163.618 408.013 169.273 405.883 173.012C403.91 176.142 401.38 178.885 398.419 181.103L397.224 182.13C389.025 189.225 381.899 198.221 375.432 206.818C370.421 213.392 371.478 222.142 372.505 230.586C372.811 233.176 373.102 235.613 373.24 238.003C373.332 239.919 373.455 241.896 373.593 243.919C374.282 254.845 375.125 267.242 372.06 277.632C367.31 294.122 343.28 313.752 327.281 326.824C324.216 329.337 321.289 331.728 318.944 333.736C304.983 345.704 292.999 386.099 292.891 386.498C292.832 386.692 292.7 386.857 292.524 386.958C292.405 387.019 292.274 387.051 292.14 387.049ZM196.865 356.799L291.619 385.333C293.366 379.571 304.523 344.064 317.948 332.571C320.308 330.548 323.235 328.157 326.315 325.629C342.1 312.741 365.961 293.248 370.589 277.249C373.532 267.105 372.75 254.86 372.122 244.041C371.999 242.018 371.861 240.041 371.769 238.111C371.647 235.781 371.355 233.36 371.049 230.801C370.037 222.449 368.888 212.994 374.267 205.929C380.857 197.255 387.968 188.199 396.289 181.011L397.485 179.969C400.299 177.862 402.713 175.267 404.611 172.307C406.388 169.074 406.741 164.43 403.952 161.764C401.163 159.097 397.515 159.94 393.791 160.553C390.067 161.166 385.868 161.84 383.569 158.73C379.799 153.657 383.692 140.34 386.527 136.187C389.133 132.686 392.052 129.429 395.247 126.456C396.917 124.786 398.511 123.207 399.952 121.614C406.082 114.856 409.147 107.822 408.35 102.535C408.121 100.997 407.536 99.5347 406.642 98.263C405.748 96.9914 404.57 95.9458 403.201 95.2095C397.071 91.6236 378.344 103.883 360.199 115.744C353.87 119.882 347.31 124.173 341.135 127.897C317.442 142.21 236.695 207.584 232.557 210.986L220.68 242.08C220.772 245.466 221.829 288.053 217.615 302.964C213.539 316.955 199.225 351.175 196.865 356.799Z" fill="#231F20"/>
<path d="M384.52 53.9253H277.229C272.904 53.9253 269.398 57.4313 269.398 61.7561V291.164C269.398 295.489 272.904 298.995 277.229 298.995H384.52C388.845 298.995 392.351 295.489 392.351 291.164V61.7561C392.351 57.4313 388.845 53.9253 384.52 53.9253Z" fill="white"/>
<path d="M384.52 299.776H277.245C274.96 299.776 272.77 298.869 271.155 297.254C269.539 295.639 268.632 293.448 268.632 291.164V61.7714C268.652 59.5006 269.568 57.3296 271.181 55.731C272.794 54.1324 274.974 53.2356 277.245 53.2357H384.52C386.801 53.2397 388.988 54.1489 390.6 55.7636C392.212 57.3783 393.117 59.5666 393.117 61.8481V291.164C393.117 293.445 392.212 295.634 390.6 297.248C388.988 298.863 386.801 299.772 384.52 299.776ZM277.245 54.7681C275.367 54.7681 273.566 55.5141 272.238 56.8418C270.91 58.1695 270.164 59.9703 270.164 61.8481V291.164C270.164 293.042 270.91 294.843 272.238 296.17C273.566 297.498 275.367 298.244 277.245 298.244H384.52C386.395 298.24 388.192 297.492 389.516 296.165C390.841 294.838 391.584 293.039 391.584 291.164V61.7714C391.564 59.9097 390.812 58.1308 389.489 56.82C388.167 55.5092 386.382 54.7721 384.52 54.7681H277.245Z" fill="#231F20"/>
<path d="M386.144 76.0999H276.111V264.714H386.144V76.0999Z" fill="#F9A826"/>
<path d="M342.621 292.298H321.687C320.208 292.298 318.789 291.71 317.743 290.664C316.696 289.618 316.109 288.199 316.109 286.72V278.721C316.109 277.24 316.696 275.819 317.742 274.771C318.787 273.722 320.206 273.131 321.687 273.127H342.621C344.102 273.131 345.521 273.722 346.566 274.771C347.612 275.819 348.199 277.24 348.199 278.721V286.72C348.199 288.199 347.612 289.618 346.565 290.664C345.519 291.71 344.1 292.298 342.621 292.298ZM321.687 274.66C320.613 274.664 319.584 275.093 318.825 275.854C318.067 276.616 317.641 277.646 317.641 278.721V286.72C317.641 287.793 318.068 288.822 318.826 289.581C319.585 290.339 320.614 290.766 321.687 290.766H342.621C343.694 290.766 344.723 290.339 345.482 289.581C346.241 288.822 346.667 287.793 346.667 286.72V278.721C346.667 277.646 346.241 276.616 345.483 275.854C344.724 275.093 343.695 274.664 342.621 274.66H321.687Z" fill="#D1D3D4"/>
<path d="M340.046 65.6792H308.722C308.519 65.6792 308.324 65.5985 308.18 65.4548C308.037 65.3111 307.956 65.1162 307.956 64.913C307.956 64.7097 308.037 64.5149 308.18 64.3712C308.324 64.2275 308.519 64.1467 308.722 64.1467H340.046C340.25 64.1467 340.445 64.2275 340.588 64.3712C340.732 64.5149 340.813 64.7097 340.813 64.913C340.813 65.1162 340.732 65.3111 340.588 65.4548C340.445 65.5985 340.25 65.6792 340.046 65.6792Z" fill="#D1D3D4"/>
<path d="M348.644 65.3114H344.445C344.241 65.3114 344.047 65.2307 343.903 65.087C343.759 64.9433 343.678 64.7484 343.678 64.5452C343.678 64.342 343.759 64.1471 343.903 64.0034C344.047 63.8597 344.241 63.779 344.445 63.779H348.644C348.847 63.779 349.042 63.8597 349.186 64.0034C349.329 64.1471 349.41 64.342 349.41 64.5452C349.41 64.7484 349.329 64.9433 349.186 65.087C349.042 65.2307 348.847 65.3114 348.644 65.3114Z" fill="#D1D3D4"/>
<path d="M380.566 161.228C380.105 163.347 380.165 165.546 380.739 167.637C381.314 169.728 382.387 171.649 383.866 173.235C385.345 174.821 387.187 176.025 389.233 176.744C391.279 177.463 393.469 177.676 395.615 177.364C398.074 176.98 400.401 175.996 402.389 174.499C404.219 173.169 405.739 171.458 406.845 169.485C407.951 167.511 408.616 165.322 408.794 163.066C409.223 155.695 403.002 149.274 395.768 148.386C388.994 147.543 381.899 155.052 380.566 161.228Z" fill="white"/>
<path d="M393.761 178.253C391.638 178.261 389.541 177.794 387.623 176.885C385.705 175.976 384.015 174.648 382.677 173.001C381.339 171.353 380.388 169.426 379.892 167.362C379.397 165.298 379.371 163.15 379.815 161.074C381.347 154.255 388.765 146.731 395.86 147.604C403.844 148.585 410.005 155.542 409.561 163.097C409.378 165.464 408.683 167.763 407.524 169.835C406.365 171.907 404.77 173.702 402.848 175.096C400.759 176.685 398.312 177.738 395.722 178.161C395.071 178.238 394.416 178.269 393.761 178.253ZM394.726 149.136C388.841 149.136 382.573 155.619 381.317 161.396C380.889 163.393 380.949 165.464 381.494 167.432C382.038 169.4 383.051 171.208 384.444 172.701C385.838 174.194 387.572 175.328 389.498 176.006C391.424 176.685 393.486 176.888 395.508 176.598C397.844 176.23 400.055 175.294 401.944 173.87C403.693 172.612 405.147 170.989 406.205 169.113C407.264 167.236 407.902 165.152 408.074 163.005C408.457 156.354 402.802 149.995 395.722 149.121C395.385 149.091 395.048 149.075 394.726 149.075V149.136Z" fill="#231F20"/>
<path d="M375.784 209.009C374.908 210.257 374.325 211.687 374.081 213.192C373.837 214.697 373.937 216.238 374.374 217.698C375.083 219.413 376.179 220.939 377.577 222.158C381.271 225.652 386.313 228.119 391.37 227.368C394.44 226.735 397.327 225.414 399.814 223.506C404.258 220.441 408.519 216.58 409.99 211.415C412.12 203.922 406.695 193.026 397.914 194.068C390.65 194.972 379.631 203.048 375.784 209.009Z" fill="white"/>
<path d="M389.5 228.272C384.777 228.086 380.303 226.101 376.995 222.725C375.502 221.425 374.337 219.793 373.593 217.959C373.12 216.384 373.012 214.723 373.278 213.1C373.543 211.478 374.175 209.937 375.125 208.596C379.064 202.466 390.282 194.252 397.745 193.271C399.538 193.064 401.354 193.316 403.021 194.005C404.689 194.695 406.154 195.797 407.277 197.209C408.924 199.172 410.089 201.493 410.677 203.987C411.265 206.48 411.261 209.077 410.664 211.569C409.377 216.166 406.067 220.074 400.197 224.089C397.608 226.063 394.606 227.425 391.416 228.073C390.783 228.185 390.143 228.252 389.5 228.272ZM376.428 209.423C375.613 210.571 375.069 211.888 374.838 213.277C374.607 214.665 374.695 216.088 375.095 217.438C375.774 219.049 376.824 220.477 378.16 221.606C382.19 225.422 386.956 227.245 391.263 226.602C394.212 225.978 396.987 224.706 399.385 222.878C404.932 219.062 408.074 215.354 409.254 211.201C409.787 208.953 409.787 206.611 409.255 204.363C408.723 202.115 407.673 200.022 406.189 198.252C405.225 197.04 403.971 196.092 402.543 195.495C401.116 194.898 399.56 194.67 398.021 194.834C391.048 195.708 380.183 203.722 376.489 209.423H376.428Z" fill="#231F20"/>
<path d="M380.244 240.287C378.536 241.464 377.108 243.002 376.06 244.792C375.032 246.873 374.615 249.204 374.859 251.513C375.104 253.821 375.998 256.013 377.439 257.833C378.914 259.621 380.731 261.096 382.784 262.173C384.837 263.249 387.084 263.904 389.393 264.101C392.113 264.431 394.872 264.182 397.489 263.371C400.106 262.561 402.523 261.206 404.58 259.396C406.609 257.549 408.122 255.206 408.971 252.597C409.82 249.988 409.976 247.203 409.423 244.516C406.112 230.448 389.01 233.912 380.244 240.287Z" fill="white"/>
<path d="M391.615 264.99C390.849 264.99 390.083 264.99 389.301 264.867C386.887 264.663 384.539 263.975 382.396 262.846C380.254 261.717 378.359 260.168 376.826 258.293C375.306 256.351 374.365 254.018 374.113 251.564C373.861 249.11 374.308 246.635 375.401 244.424C376.499 242.536 378.001 240.913 379.799 239.674C385.715 235.368 395.339 232.349 402.266 234.923C404.28 235.684 406.064 236.951 407.447 238.602C408.829 240.252 409.763 242.231 410.158 244.348C410.757 247.165 410.605 250.091 409.718 252.832C408.83 255.572 407.238 258.032 405.101 259.963C401.384 263.253 396.578 265.044 391.615 264.99ZM380.704 240.915C379.088 242.025 377.734 243.474 376.734 245.16C375.772 247.118 375.384 249.308 375.614 251.478C375.845 253.647 376.685 255.707 378.037 257.419C379.447 259.128 381.185 260.537 383.149 261.564C385.112 262.59 387.261 263.213 389.47 263.396C392.084 263.713 394.736 263.476 397.252 262.7C399.768 261.923 402.093 260.625 404.074 258.891C406.012 257.145 407.456 254.921 408.263 252.441C409.07 249.961 409.211 247.313 408.672 244.761C408.34 242.888 407.527 241.134 406.313 239.669C405.099 238.205 403.524 237.082 401.745 236.41C395.308 234.034 386.282 236.915 380.704 241.007V240.915Z" fill="#231F20"/>
<path d="M200.681 320.495L211.669 298.796L315.634 340.432L303.895 359.327L200.681 320.495Z" fill="#F9A826"/>
<path d="M312.324 353.075L199.654 310.151L161.342 370.315L284.723 417.07L312.324 353.075Z" fill="#231F20"/>
<path d="M284.723 417.836C284.637 417.849 284.549 417.849 284.463 417.836L161.066 371.097C160.961 371.056 160.866 370.992 160.789 370.91C160.712 370.828 160.655 370.729 160.621 370.622C160.572 370.519 160.547 370.406 160.547 370.292C160.547 370.178 160.572 370.066 160.621 369.963L198.934 309.814C199.028 309.665 199.171 309.553 199.339 309.497C199.507 309.441 199.688 309.445 199.853 309.507L312.507 352.416C312.702 352.494 312.86 352.642 312.952 352.83C312.993 352.927 313.014 353.031 313.014 353.136C313.014 353.242 312.993 353.346 312.952 353.443L285.367 417.423C285.305 417.542 285.213 417.643 285.1 417.716C284.987 417.788 284.857 417.83 284.723 417.836ZM162.445 369.932L284.279 416.089L311.251 353.504L199.915 311.086L162.445 369.932Z" fill="#231F20"/>
<path d="M220.052 243.26C220.052 243.26 220.818 177.548 228.48 164.507C236.143 151.466 260.326 96.6807 266.793 96.2975C273.26 95.9144 280.003 115.744 274.318 133.383C270.984 143.776 266.074 153.596 259.759 162.499C259.759 162.499 278.792 182.804 268.433 219.2" fill="white"/>
<path d="M220.052 244.056C219.951 244.054 219.852 244.033 219.76 243.992C219.667 243.952 219.584 243.894 219.514 243.821C219.445 243.749 219.39 243.663 219.353 243.569C219.317 243.476 219.299 243.376 219.301 243.275C219.301 240.593 220.159 177.211 227.837 164.154C230.166 160.17 234.059 152.293 238.564 143.145C252.204 115.469 262.211 95.8378 266.824 95.6386C268.509 95.516 270.241 96.5428 271.804 98.5656C276.754 104.971 279.467 120.234 274.992 133.674C271.658 143.938 266.841 153.66 260.694 162.53C263.452 165.856 278.608 186.145 269.138 219.476C269.11 219.577 269.064 219.671 269 219.753C268.937 219.836 268.857 219.905 268.767 219.957C268.677 220.009 268.577 220.043 268.473 220.056C268.37 220.07 268.265 220.062 268.165 220.035C268.064 220.008 267.97 219.961 267.887 219.898C267.804 219.834 267.735 219.755 267.683 219.665C267.631 219.574 267.598 219.475 267.584 219.371C267.571 219.268 267.578 219.163 267.605 219.062C272.892 200.489 270.302 186.268 267.191 177.686C265.412 172.387 262.669 167.461 259.1 163.158C258.985 163.021 258.922 162.847 258.922 162.668C258.922 162.489 258.985 162.315 259.1 162.178C265.351 153.332 270.218 143.586 273.536 133.276C277.766 120.311 275.298 105.691 270.594 99.5617C270.201 98.9125 269.663 98.363 269.022 97.9562C268.381 97.5495 267.655 97.2965 266.9 97.217C262.839 97.4622 248.51 126.563 239.928 143.957C235.423 153.151 231.515 161.028 229.201 165.059C221.722 177.763 220.879 242.769 220.879 243.413C220.846 243.604 220.742 243.775 220.589 243.894C220.436 244.013 220.245 244.071 220.052 244.056Z" fill="#231F20"/>
<path d="M200.037 361.887C204.481 361.887 208.083 358.285 208.083 353.841C208.083 349.398 204.481 345.796 200.037 345.796C195.594 345.796 191.992 349.398 191.992 353.841C191.992 358.285 195.594 361.887 200.037 361.887Z" fill="white"/>
<path d="M197.693 162.285C197.545 162.289 197.4 162.246 197.279 162.162L156.959 135.819C156.788 135.708 156.669 135.533 156.627 135.333C156.585 135.133 156.625 134.925 156.736 134.754C156.848 134.584 157.023 134.464 157.223 134.423C157.423 134.381 157.631 134.42 157.802 134.532L198.137 160.875C198.308 160.988 198.429 161.164 198.472 161.364C198.515 161.565 198.477 161.775 198.367 161.948C198.291 162.055 198.19 162.142 198.072 162.201C197.954 162.26 197.824 162.289 197.693 162.285Z" fill="#D1D3D4"/>
<path d="M180.743 212.718L124.133 210.097C124.032 210.093 123.933 210.07 123.842 210.028C123.75 209.985 123.668 209.925 123.599 209.851C123.531 209.777 123.478 209.691 123.443 209.596C123.409 209.502 123.393 209.401 123.397 209.301C123.412 209.1 123.503 208.913 123.651 208.776C123.799 208.64 123.993 208.564 124.194 208.565L180.835 211.185C181.038 211.201 181.228 211.294 181.365 211.445C181.501 211.596 181.575 211.794 181.571 211.998C181.555 212.202 181.459 212.393 181.304 212.527C181.15 212.662 180.948 212.731 180.743 212.718Z" fill="#D1D3D4"/>
<path d="M454.049 156.416C453.893 156.411 453.741 156.361 453.613 156.271C453.485 156.181 453.386 156.056 453.329 155.91C453.26 155.719 453.269 155.508 453.356 155.324C453.442 155.14 453.598 154.998 453.789 154.929L487.059 142.67C487.25 142.601 487.461 142.61 487.645 142.696C487.829 142.783 487.971 142.938 488.04 143.129C488.077 143.223 488.094 143.323 488.092 143.423C488.089 143.523 488.066 143.622 488.025 143.714C487.983 143.805 487.924 143.887 487.85 143.955C487.777 144.023 487.69 144.076 487.596 144.11L454.31 156.37C454.226 156.401 454.138 156.416 454.049 156.416Z" fill="#D1D3D4"/>
<path d="M494.093 242.294H493.909L457.038 233.314C456.841 233.267 456.671 233.143 456.564 232.971C456.458 232.799 456.424 232.592 456.47 232.395C456.494 232.295 456.537 232.202 456.596 232.12C456.656 232.037 456.732 231.968 456.819 231.915C456.906 231.862 457.003 231.827 457.103 231.812C457.204 231.797 457.307 231.802 457.405 231.828L494.277 240.808C494.474 240.855 494.644 240.978 494.75 241.151C494.857 241.323 494.89 241.53 494.844 241.727C494.8 241.892 494.702 242.037 494.566 242.14C494.43 242.242 494.264 242.297 494.093 242.294Z" fill="#D1D3D4"/>
<path d="M435.659 350.439C435.549 350.438 435.441 350.415 435.341 350.37C435.24 350.325 435.151 350.26 435.077 350.179L413.514 325.016C413.448 324.941 413.397 324.854 413.365 324.759C413.332 324.664 413.319 324.563 413.327 324.463C413.334 324.363 413.361 324.266 413.406 324.177C413.452 324.087 413.515 324.008 413.591 323.943C413.737 323.802 413.932 323.723 414.135 323.723C414.338 323.723 414.533 323.802 414.679 323.943L436.241 349.106C436.308 349.181 436.359 349.268 436.391 349.363C436.424 349.458 436.436 349.559 436.429 349.659C436.422 349.758 436.395 349.856 436.35 349.945C436.304 350.035 436.241 350.114 436.165 350.179C436.034 350.325 435.854 350.418 435.659 350.439Z" fill="#D1D3D4"/>
<path d="M166.23 280.038C166.061 280.038 165.895 279.983 165.76 279.881C165.624 279.778 165.526 279.635 165.479 279.471C165.454 279.374 165.448 279.272 165.462 279.172C165.476 279.072 165.51 278.976 165.561 278.889C165.612 278.803 165.68 278.727 165.761 278.666C165.842 278.606 165.933 278.562 166.031 278.537L186.842 273.02C186.94 272.994 187.042 272.989 187.142 273.003C187.241 273.017 187.338 273.05 187.424 273.102C187.511 273.153 187.587 273.221 187.648 273.301C187.708 273.382 187.752 273.474 187.777 273.571C187.829 273.767 187.802 273.974 187.701 274.149C187.601 274.324 187.435 274.452 187.241 274.506L166.43 280.023L166.23 280.038Z" fill="#D1D3D4"/>
</svg>
