<svg viewBox="0 0 400 300" width="406" height="306"  fill="none" xmlns="http://www.w3.org/2000/svg">
<path d="M416 530.314C535.757 530.314 632.84 433.243 632.84 313.5C632.84 193.757 535.757 96.6856 416 96.6856C296.243 96.6856 199.16 193.757 199.16 313.5C199.16 433.243 296.243 530.314 416 530.314Z" fill="white"/>
<path d="M416 531.354C372.907 531.354 330.783 518.577 294.952 494.639C259.122 470.701 231.196 436.677 214.705 396.869C198.214 357.062 193.9 313.258 202.307 270.999C210.713 228.739 231.465 189.921 261.936 159.454C292.407 128.986 331.229 108.238 373.494 99.8317C415.758 91.4257 459.567 95.74 499.379 112.229C539.191 128.718 573.22 156.641 597.161 192.467C621.102 228.293 633.88 270.412 633.88 313.5C633.814 371.258 610.838 426.632 569.991 467.473C529.145 508.315 473.765 531.288 416 531.354ZM416 97.7254C373.319 97.7254 331.596 110.38 296.108 134.09C260.62 157.8 232.96 191.499 216.627 230.927C200.293 270.354 196.02 313.739 204.347 355.596C212.673 397.452 233.226 435.899 263.406 466.076C293.587 496.252 332.038 516.803 373.9 525.128C415.761 533.454 459.151 529.181 498.583 512.85C538.015 496.518 571.719 468.862 595.431 433.378C619.144 397.894 631.8 356.176 631.8 313.5C631.739 256.292 608.984 201.444 568.527 160.991C528.07 120.539 473.215 97.786 416 97.7254Z" fill="#D1D3D4"/>
<path d="M594.235 481.835C594.235 481.835 571.688 428.614 565.76 407.817C562.129 393.622 560.629 378.966 561.309 364.329L545.293 282.657C545.293 282.657 432.64 224.778 399.36 204.666C366.08 184.555 325.832 153.359 314.08 160.284C302.328 167.21 304.366 182.475 318.24 197.72C323.939 203.959 331.656 210.511 336.378 217.374C340.226 222.947 345.051 240.521 340.413 246.761C334.88 254.227 320.133 231.017 312.437 238.442C308.381 242.31 307.486 256.057 315.661 267.974C320.093 273.529 325.068 278.629 330.512 283.198C341.744 292.91 344.136 300.418 353.038 312.127C362.19 324.169 355.243 306.221 354.515 320.093C353.642 336.939 351.291 357.05 356.054 373.543C363.688 399.893 408.429 432.483 427.835 449.121C447.242 465.759 437.466 522.64 437.466 522.64L594.235 481.835Z" fill="white"/>
<path d="M437.424 523.555C437.273 523.551 437.125 523.515 436.989 523.449C436.853 523.383 436.733 523.289 436.636 523.173C436.54 523.056 436.469 522.921 436.429 522.775C436.389 522.63 436.381 522.477 436.405 522.328C436.509 521.767 445.869 465.863 427.128 449.786C423.946 447.062 419.994 443.838 415.792 440.427C394.181 422.75 361.483 396.045 355.014 373.709C350.854 359.608 352.019 342.783 352.934 327.954C353.122 325.209 353.288 322.526 353.413 319.926C353.443 318.309 353.71 316.704 354.203 315.164C353.621 314.498 352.934 313.666 352.123 312.647C349.107 308.654 346.882 305.243 344.718 301.916C340.708 295.148 335.653 289.055 329.742 283.864C328.64 282.886 318.76 274.276 314.725 268.432C306.155 255.953 307.174 241.832 311.646 237.568C316.118 233.305 322.629 237.922 328.286 242.081C330.469 243.861 332.84 245.395 335.358 246.657C337.875 247.717 338.894 246.969 339.518 246.095C343.678 240.438 339.31 223.509 335.358 217.914C331.884 213.277 328.007 208.955 323.773 204.999C321.464 202.711 319.301 200.549 317.304 198.365C308.402 188.59 304.179 178.773 305.386 170.766C305.758 168.375 306.674 166.101 308.062 164.118C309.45 162.135 311.274 160.496 313.394 159.328C322.774 153.816 346.486 169.311 373.942 187.259C382.533 192.874 391.394 198.677 399.755 203.71C432.619 223.571 544.565 281.097 545.688 281.659C545.828 281.73 545.95 281.833 546.044 281.959C546.138 282.086 546.201 282.232 546.229 282.387L562.245 364.059C562.254 364.149 562.254 364.239 562.245 364.329C561.584 378.846 563.07 393.381 566.654 407.463C572.458 427.97 594.818 480.837 595.046 481.357C595.108 481.494 595.141 481.643 595.141 481.794C595.141 481.944 595.108 482.093 595.046 482.231C594.974 482.362 594.876 482.478 594.758 482.57C594.64 482.663 594.505 482.732 594.36 482.771L437.694 523.555H437.424ZM355.909 316.807C355.686 317.868 355.553 318.947 355.514 320.03C355.389 322.651 355.202 325.334 355.035 328.079C354.099 342.741 352.955 359.379 357.011 373.127C363.251 394.839 395.678 421.294 417.123 438.805C421.283 442.237 425.277 445.481 428.48 448.206C446.514 463.679 440.17 511.576 438.714 520.997L592.8 481.128C589.534 473.371 570.17 427.055 564.803 408.087C559.166 388.205 560.206 366.347 560.31 364.412L544.419 283.302C536.598 279.288 430.685 224.778 398.819 205.519C390.499 200.465 381.555 194.642 372.944 189.027C348.317 172.929 322.858 156.291 314.704 161.137C312.839 162.135 311.233 163.556 310.016 165.286C308.798 167.015 308.003 169.007 307.694 171.099C306.592 178.378 310.752 187.737 319.093 196.992C321.048 199.072 323.253 201.276 325.478 203.543C329.811 207.583 333.771 212.003 337.314 216.75C341.162 222.324 346.445 240.459 341.328 247.364C339.81 249.444 337.584 249.818 334.672 248.591C332.007 247.269 329.496 245.658 327.184 243.787C321.963 239.918 316.576 235.925 313.248 239.086C309.92 242.248 308.526 255.516 316.618 267.267C320.966 272.744 325.843 277.781 331.178 282.304C337.247 287.623 342.435 293.871 346.549 300.813C348.629 304.099 350.896 307.49 353.87 311.399C354.557 312.294 355.118 313.001 355.597 313.479C355.77 313.409 355.952 313.36 356.138 313.334C356.732 313.341 357.305 313.551 357.763 313.929C358.221 314.308 358.536 314.831 358.654 315.413C358.808 315.75 358.832 316.133 358.721 316.486C358.609 316.839 358.371 317.139 358.051 317.327C357.49 317.66 356.866 317.66 355.909 316.869V316.807Z" fill="#231F20"/>
<path d="M338.104 416.801H483.725C489.595 416.801 494.354 412.043 494.354 406.174L494.354 94.8345C494.354 88.9651 489.595 84.207 483.725 84.207H338.104C332.234 84.207 327.475 88.9651 327.475 94.8345V406.174C327.475 412.043 332.234 416.801 338.104 416.801Z" fill="white"/>
<path d="M483.725 417.841H338.125C335.028 417.836 332.06 416.602 329.872 414.411C327.685 412.219 326.456 409.249 326.456 406.153V94.8346C326.456 91.7383 327.685 88.7685 329.872 86.5771C332.06 84.3857 335.028 83.1519 338.125 83.1464H483.725C486.825 83.1464 489.798 84.3778 491.991 86.5698C494.183 88.7617 495.414 91.7347 495.414 94.8346V406.153C495.414 409.253 494.183 412.226 491.991 414.418C489.798 416.61 486.825 417.841 483.725 417.841ZM338.125 85.2261C335.598 85.2589 333.186 86.2857 331.41 88.0841C329.635 89.8825 328.64 92.3077 328.64 94.8346V406.153C328.64 408.698 329.65 411.139 331.447 412.94C333.245 414.741 335.684 415.756 338.229 415.762H483.829C486.377 415.762 488.822 414.749 490.624 412.947C492.426 411.145 493.438 408.701 493.438 406.153V94.8346C493.438 92.2863 492.426 89.8423 490.624 88.0404C488.822 86.2384 486.377 85.2261 483.829 85.2261H338.125Z" fill="#231F20"/>
<path d="M335.92 370.257H485.264L485.264 114.28L335.92 114.28V370.257Z" fill="#FFC465"/>
<path d="M423.405 407.692H394.992C392.982 407.687 391.056 406.884 389.637 405.461C388.218 404.038 387.421 402.111 387.421 400.101V389.245C387.421 387.235 388.218 385.307 389.637 383.884C391.056 382.461 392.982 381.659 394.992 381.654H423.405C425.415 381.659 427.34 382.461 428.76 383.884C430.179 385.307 430.976 387.235 430.976 389.245V400.101C430.976 402.111 430.179 404.038 428.76 405.461C427.34 406.884 425.415 407.687 423.405 407.692ZM394.992 383.733C393.534 383.739 392.137 384.322 391.108 385.355C390.079 386.388 389.501 387.787 389.501 389.245V400.101C389.501 401.559 390.079 402.958 391.108 403.991C392.137 405.024 393.534 405.607 394.992 405.612H423.405C424.863 405.607 426.26 405.024 427.289 403.991C428.318 402.958 428.896 401.559 428.896 400.101V389.245C428.896 387.787 428.318 386.388 427.289 385.355C426.26 384.322 424.863 383.739 423.405 383.733H394.992Z" fill="#D1D3D4"/>
<path d="M440.96 100.159H398.486C398.211 100.159 397.946 100.049 397.751 99.8542C397.556 99.6592 397.446 99.3947 397.446 99.1189C397.446 98.8431 397.556 98.5786 397.751 98.3836C397.946 98.1886 398.211 98.079 398.486 98.079H440.96C441.236 98.079 441.5 98.1886 441.695 98.3836C441.89 98.5786 442 98.8431 442 99.1189C442 99.3947 441.89 99.6592 441.695 99.8542C441.5 100.049 441.236 100.159 440.96 100.159Z" fill="#D1D3D4"/>
<path d="M392.517 99.6388H386.88C386.604 99.6388 386.34 99.5292 386.145 99.3342C385.95 99.1392 385.84 98.8747 385.84 98.5989C385.84 98.3231 385.95 98.0586 386.145 97.8636C386.34 97.6686 386.604 97.5591 386.88 97.5591H392.579C392.855 97.5591 393.12 97.6686 393.315 97.8636C393.51 98.0586 393.619 98.3231 393.619 98.5989C393.619 98.7409 393.591 98.8814 393.534 99.0118C393.478 99.1422 393.396 99.2598 393.293 99.3572C393.19 99.4546 393.067 99.5299 392.934 99.5783C392.801 99.6267 392.659 99.6473 392.517 99.6388Z" fill="#D1D3D4"/>
<path d="M357.594 253.187C357.706 256.118 356.93 259.015 355.367 261.498C353.805 263.981 351.528 265.934 348.837 267.101C342.175 270.062 334.65 270.44 327.725 268.161C323.763 266.885 320.084 264.859 316.888 262.192C311.397 257.555 308.194 251.336 308.901 245.554C310.066 236.133 322.338 230.247 334.942 231.662C346.715 232.972 356.907 244.868 357.594 253.187Z" fill="white"/>
<path d="M337.21 270.595C333.887 270.592 330.584 270.087 327.413 269.097C323.316 267.756 319.517 265.637 316.222 262.858C310.253 257.825 307.133 251.274 307.902 245.326C309.13 235.634 321.318 229 335.109 230.539C347.235 231.911 357.989 243.932 358.675 252.979C358.816 256.116 358.001 259.222 356.336 261.885C354.672 264.548 352.238 266.642 349.357 267.891C345.569 269.713 341.413 270.639 337.21 270.595ZM331.198 232.39C320.237 232.39 310.877 237.963 309.941 245.575C309.275 250.795 312.146 256.66 317.574 261.236C320.629 263.826 324.162 265.79 327.974 267.017C334.641 269.242 341.9 268.886 348.317 266.019C350.824 264.949 352.947 263.143 354.406 260.841C355.866 258.539 356.593 255.848 356.491 253.125C355.867 245.762 346.486 233.908 334.755 232.598C333.575 232.459 332.387 232.389 331.198 232.39Z" fill="#231F20"/>
<path d="M355.43 295.136C356.624 296.827 357.417 298.768 357.749 300.811C358.081 302.854 357.942 304.946 357.344 306.928C356.398 309.269 354.908 311.351 352.997 313.001C348.005 317.722 341.162 321.07 334.277 320.051C330.101 319.201 326.174 317.408 322.795 314.81C316.784 310.651 311.002 305.41 309.005 298.401C306.114 288.252 313.477 273.444 325.395 274.879C335.254 276.064 350.21 287.046 355.43 295.136Z" fill="white"/>
<path d="M336.835 321.278C335.95 321.282 335.067 321.213 334.194 321.07C329.895 320.165 325.86 318.286 322.4 315.58C314.454 310.131 309.92 304.723 308.194 298.609C307.382 295.224 307.375 291.697 308.174 288.309C308.972 284.921 310.553 281.767 312.79 279.101C314.308 277.181 316.292 275.682 318.553 274.747C320.814 273.811 323.277 273.47 325.707 273.756C335.858 275.025 351.062 286.234 356.408 294.553C357.706 296.37 358.569 298.461 358.929 300.665C359.29 302.868 359.139 305.125 358.488 307.261C357.487 309.749 355.912 311.965 353.891 313.729C349.382 318.335 343.277 321.037 336.835 321.278ZM323.856 275.815C322.008 275.843 320.189 276.281 318.531 277.097C316.872 277.914 315.416 279.088 314.267 280.536C312.249 282.936 310.821 285.777 310.099 288.829C309.376 291.881 309.379 295.059 310.107 298.11C311.709 303.746 315.973 308.779 323.502 313.958C326.749 316.456 330.517 318.191 334.526 319.032C340.35 319.885 346.84 317.41 352.31 312.231C354.13 310.706 355.557 308.766 356.47 306.574C357.022 304.744 357.146 302.811 356.832 300.925C356.519 299.039 355.776 297.251 354.661 295.697C349.669 287.961 334.901 277.084 325.541 275.898C324.982 275.831 324.419 275.803 323.856 275.815Z" fill="#231F20"/>
<path d="M349.544 327.767C351.857 329.37 353.795 331.456 355.222 333.882C356.621 336.704 357.19 339.866 356.862 342.999C356.534 346.132 355.324 349.108 353.371 351.58C351.368 354.005 348.901 356.006 346.116 357.466C343.33 358.927 340.281 359.818 337.147 360.087C333.452 360.535 329.704 360.197 326.149 359.097C322.593 357.997 319.31 356.158 316.514 353.702C313.761 351.195 311.708 348.014 310.56 344.473C309.411 340.932 309.205 337.152 309.962 333.507C314.517 314.415 337.646 319.115 349.544 327.767Z" fill="white"/>
<path d="M334.11 361.334C327.375 361.405 320.853 358.974 315.806 354.513C312.911 351.887 310.754 348.549 309.55 344.831C308.345 341.113 308.136 337.144 308.942 333.32C309.479 330.448 310.747 327.762 312.623 325.522C314.499 323.282 316.921 321.562 319.654 320.53C329.077 317.056 342.118 321.133 350.147 326.977C352.594 328.659 354.64 330.86 356.138 333.424C357.617 336.427 358.218 339.787 357.872 343.117C357.526 346.446 356.247 349.611 354.182 352.246C352.103 354.793 349.533 356.895 346.624 358.428C343.715 359.961 340.528 360.893 337.251 361.168C336.211 361.334 335.15 361.334 334.11 361.334ZM327.475 321.299C325.061 321.273 322.661 321.667 320.382 322.464C317.962 323.371 315.82 324.894 314.168 326.882C312.516 328.869 311.41 331.253 310.96 333.798C310.235 337.261 310.429 340.853 311.524 344.218C312.619 347.582 314.576 350.601 317.2 352.974C319.881 355.319 323.027 357.073 326.432 358.119C329.837 359.165 333.424 359.482 336.96 359.047C339.957 358.801 342.875 357.957 345.54 356.563C348.206 355.17 350.564 353.256 352.477 350.936C354.322 348.617 355.468 345.82 355.781 342.874C356.094 339.927 355.561 336.952 354.245 334.298C352.903 332.005 351.071 330.037 348.878 328.537C342.62 324.048 335.172 321.515 327.475 321.257V321.299Z" fill="#231F20"/>
<path d="M583.17 436.642L567.819 404.136L420.763 455.069L430.31 490.529L583.17 436.642Z" fill="#FFC465"/>
<path d="M419.474 476.761L581.714 424.06L627.973 509.559L447.491 564.36L419.474 476.761Z" fill="#231F20"/>
<path d="M447.491 565.379C447.271 565.382 447.056 565.315 446.877 565.188C446.698 565.061 446.563 564.88 446.493 564.672L418.496 477.073C418.454 476.944 418.438 476.809 418.449 476.674C418.46 476.54 418.497 476.409 418.559 476.289C418.621 476.169 418.706 476.062 418.81 475.976C418.913 475.889 419.033 475.823 419.162 475.783L581.402 423.082C581.629 423 581.879 423.002 582.105 423.09C582.331 423.178 582.517 423.346 582.629 423.561L628.888 508.997C628.963 509.132 629.006 509.282 629.014 509.437C629.022 509.591 628.995 509.745 628.935 509.887C628.875 510.029 628.783 510.156 628.667 510.258C628.551 510.359 628.413 510.433 628.264 510.474L447.782 565.275C447.695 565.332 447.595 565.368 447.491 565.379ZM420.784 477.426L448.157 563.071L626.454 508.997L581.214 425.37L420.784 477.426Z" fill="#231F20"/>
<path d="M561.35 369.279C561.35 369.279 560.31 280.099 549.91 262.4C539.51 244.702 506.688 170.35 497.91 169.831C489.133 169.311 480.064 196.181 487.864 220.119C492.389 234.225 499.053 247.552 507.624 259.634C507.624 259.634 484.89 279.413 502.05 345.008" fill="white"/>
<path d="M561.35 370.319C561.078 370.319 560.817 370.212 560.622 370.022C560.428 369.831 560.316 369.572 560.31 369.3C560.31 368.406 559.166 280.182 549.016 262.941C545.792 257.471 540.509 246.719 534.456 234.282C522.829 210.698 503.381 171.203 497.869 170.87C496.82 170.975 495.811 171.328 494.925 171.899C494.039 172.471 493.301 173.244 492.773 174.156C486.387 182.475 483.018 202.296 488.779 219.911C493.282 233.904 499.889 247.13 508.373 259.135C508.533 259.345 508.607 259.608 508.579 259.871C508.552 260.134 508.427 260.376 508.227 260.549C507.998 260.737 486.221 280.827 502.965 344.863C503.035 345.127 502.998 345.409 502.862 345.647C502.725 345.884 502.501 346.058 502.237 346.131C502.106 346.169 501.968 346.18 501.833 346.163C501.698 346.147 501.567 346.104 501.448 346.036C501.33 345.968 501.227 345.877 501.144 345.768C501.062 345.66 501.002 345.536 500.968 345.403C485.326 285.652 502.362 263.648 506.168 259.655C497.844 247.631 491.313 234.46 486.782 220.556C480.834 202.296 484.411 181.602 491.13 172.909C491.843 171.742 492.833 170.769 494.012 170.076C495.191 169.383 496.523 168.992 497.89 168.936C504.13 169.29 517.733 195.973 536.245 233.409C542.36 245.887 547.622 256.515 550.805 261.922C561.205 279.642 562.349 365.66 562.39 369.3C562.393 369.436 562.369 369.572 562.319 369.699C562.27 369.827 562.195 369.943 562.101 370.041C562.006 370.14 561.893 370.219 561.768 370.273C561.643 370.328 561.508 370.358 561.371 370.361L561.35 370.319Z" fill="#231F20"/>
<path d="M572.27 488.075C578.301 488.075 583.19 483.186 583.19 477.156C583.19 471.126 578.301 466.237 572.27 466.237C566.239 466.237 561.35 471.126 561.35 477.156C561.35 483.186 566.239 488.075 572.27 488.075Z" fill="white"/>
<path d="M440.045 107.022H247.229C242.385 107.022 237.74 108.946 234.315 112.37C230.89 115.795 228.966 120.439 228.966 125.282V222.261C228.966 227.106 230.89 231.753 234.314 235.18C237.738 238.608 242.383 240.537 247.229 240.542H410.738L437.632 274.754V240.542H440.045C444.89 240.537 449.535 238.608 452.96 235.18C456.384 231.753 458.307 227.106 458.307 222.261V125.282C458.307 120.439 456.383 115.795 452.958 112.37C449.533 108.946 444.888 107.022 440.045 107.022Z" fill="white"/>
<path d="M437.632 275.815C437.473 275.817 437.316 275.78 437.175 275.707C437.034 275.635 436.912 275.529 436.821 275.399L410.218 241.582H247.229C242.109 241.571 237.203 239.531 233.585 235.91C229.967 232.288 227.932 227.38 227.926 222.261V125.282C227.932 120.165 229.967 115.259 233.586 111.641C237.205 108.023 242.111 105.988 247.229 105.982H440.045C445.162 105.988 450.069 108.023 453.688 111.641C457.306 115.259 459.342 120.165 459.347 125.282V222.261C459.342 227.38 457.307 232.288 453.689 235.91C450.071 239.531 445.164 241.571 440.045 241.582H438.672V274.858C438.674 275.075 438.606 275.287 438.479 275.463C438.351 275.639 438.171 275.769 437.965 275.836C437.854 275.851 437.74 275.844 437.632 275.815ZM247.229 108.062C242.665 108.073 238.29 109.891 235.063 113.118C231.835 116.345 230.017 120.718 230.006 125.282V222.261C230.012 226.829 231.827 231.208 235.056 234.439C238.284 237.671 242.661 239.491 247.229 239.502H410.738C410.894 239.502 411.049 239.537 411.189 239.605C411.33 239.674 411.453 239.774 411.549 239.897L436.509 271.759V240.563C436.509 240.287 436.618 240.023 436.813 239.828C437.008 239.633 437.273 239.523 437.549 239.523H439.962C444.531 239.518 448.912 237.699 452.141 234.466C455.37 231.233 457.184 226.851 457.184 222.282V125.282C457.178 120.717 455.362 116.34 452.134 113.112C448.905 109.883 444.528 108.067 439.962 108.062H247.229Z" fill="#231F20"/>
<path d="M364.354 140.423H322.92C318.739 140.423 315.349 143.812 315.349 147.993V168.936C315.349 173.117 318.739 176.507 322.92 176.507H364.354C368.535 176.507 371.925 173.117 371.925 168.936V147.993C371.925 143.812 368.535 140.423 364.354 140.423Z" fill="#FFC465"/>
<path d="M357.76 149.033H329.514C328.41 149.033 327.352 148.595 326.572 147.815C325.792 147.035 325.354 145.977 325.354 144.873V133.664C325.271 131.21 325.683 128.764 326.565 126.473C327.447 124.181 328.781 122.091 330.488 120.325C332.195 118.56 334.24 117.156 336.5 116.198C338.761 115.239 341.192 114.745 343.647 114.745C346.103 114.745 348.533 115.239 350.794 116.198C353.055 117.156 355.099 118.56 356.806 120.325C358.513 122.091 359.847 124.181 360.73 126.473C361.612 128.764 362.024 131.21 361.941 133.664V144.873C361.941 145.421 361.833 145.964 361.622 146.47C361.412 146.976 361.104 147.436 360.715 147.822C360.327 148.209 359.865 148.515 359.358 148.722C358.851 148.93 358.308 149.036 357.76 149.033ZM333.653 140.714H353.6V133.664C353.662 132.316 353.449 130.969 352.976 129.706C352.502 128.442 351.778 127.288 350.845 126.312C349.913 125.336 348.793 124.56 347.552 124.029C346.311 123.499 344.976 123.225 343.626 123.225C342.277 123.225 340.941 123.499 339.701 124.029C338.46 124.56 337.34 125.336 336.407 126.312C335.475 127.288 334.75 128.442 334.277 129.706C333.804 130.969 333.591 132.316 333.653 133.664V140.714Z" fill="#FFC465"/>
<path d="M343.637 158.246C346.624 158.246 349.045 155.825 349.045 152.839C349.045 149.853 346.624 147.432 343.637 147.432C340.65 147.432 338.229 149.853 338.229 152.839C338.229 155.825 340.65 158.246 343.637 158.246Z" fill="#231F20"/>
<path d="M345.155 153.879H342.118V166.503H345.155V153.879Z" fill="#231F20"/>
<path d="M431.309 218.705H255.154C253.388 218.705 251.695 218.004 250.447 216.756C249.199 215.507 248.498 213.815 248.498 212.05V193.332C248.498 191.567 249.199 189.874 250.447 188.626C251.695 187.378 253.388 186.677 255.154 186.677H431.309C433.076 186.677 434.771 187.377 436.023 188.625C437.274 189.872 437.98 191.565 437.986 193.332V212.05C437.98 213.817 437.274 215.509 436.023 216.757C434.771 218.004 433.076 218.705 431.309 218.705ZM255.154 188.715C253.94 188.715 252.776 189.197 251.918 190.055C251.06 190.913 250.578 192.077 250.578 193.29V212.008C250.575 212.61 250.691 213.206 250.92 213.762C251.149 214.319 251.486 214.824 251.912 215.249C252.337 215.675 252.843 216.012 253.399 216.241C253.956 216.47 254.552 216.586 255.154 216.583H431.309C431.911 216.586 432.509 216.47 433.066 216.241C433.624 216.012 434.131 215.676 434.558 215.251C434.985 214.826 435.324 214.32 435.555 213.764C435.787 213.207 435.906 212.611 435.906 212.008V193.29C435.9 192.075 435.413 190.911 434.552 190.054C433.69 189.196 432.524 188.715 431.309 188.715H255.154Z" fill="#D1D3D4"/>
<path d="M267.384 203.585L269.734 206.684L267.114 208.514L264.763 205.353L262.454 208.41L260 206.58L262.371 203.543L258.606 202.296L259.626 199.384L263.328 200.673V196.888H266.51V200.673L270.213 199.509L271.19 202.42L267.384 203.585Z" fill="black"/>
<path d="M284.502 203.585L286.853 206.684L284.232 208.514L281.882 205.353L279.573 208.41L277.014 206.58L279.386 203.543L275.621 202.296L276.64 199.384L280.342 200.673V196.888H283.525V200.673L287.227 199.509L288.205 202.42L284.502 203.585Z" fill="black"/>
<path d="M301.6 203.585L303.95 206.684L301.33 208.514L299 205.353L296.691 208.41L294.133 206.58L296.504 203.543L292.739 202.296L293.758 199.384L297.461 200.673V196.888H300.643V200.673L304.346 199.509L305.323 202.42L301.6 203.585Z" fill="black"/>
<path d="M318.739 203.585L321.09 206.684L318.469 208.514L316.16 205.353L313.851 208.41L311.314 206.58L313.664 203.543L309.899 202.296L310.918 199.384L314.621 200.673V196.888H317.824V200.673L321.506 199.509L322.504 202.42L318.739 203.585Z" fill="black"/>
<path d="M335.858 203.585L338.208 206.684L335.587 208.514L333.237 205.353L330.928 208.41L328.39 206.58L330.72 203.543L326.955 202.296L327.974 199.384L331.677 200.673V196.888H334.88V200.673L338.562 199.509L339.56 202.42L335.858 203.585Z" fill="black"/>
</svg>
